<svg xmlns="http://www.w3.org/2000/svg" width="29" height="17"><path d="M18.2.167c-1.625 0-3.344.176-5.09.547C5.955 2.23.685 6.505.683 10.568a4.62 4.62 0 0 0 .093.927c.518 2.524 3.107 4.317 6.704 5.045L10 6.717c.343-1.352.534-1.874.874-2.462.442-.76 1.15-1.39 2.144-1.48.54-.05 1.344.02 1.794.34.425.303.48.622.465.91-.03.598-.388.997-.963.997-.588 0-.772-.44-.775-.73-.004-.394.226-.455.224-.748-.001-.15-.135-.382-.503-.324-.454.072-.832.44-1.08 1.078-.057.15-.128.348-.217.688l-.45 1.787h2.978L13.25 11.46h-1.504l1.032-3.917h-1.475L8.947 16.77a20.38 20.38 0 0 0 2.302.131h.078a24.32 24.32 0 0 0 4.979-.542c7.163-1.523 12.643-5.836 12.65-9.91 0-.3-.03-.6-.1-.898C28.18 2.2 23.73.167 18.19.167H18.2zM4.966 4.437h1.76c2.7 0 2.89 1.403 2.66 2.4-.283 1.235-1 2.117-4.11 2.122l-.665 2.5H3.1l1.866-7.024zm13.577 5.37c0-1.696 1.5-3.142 3.102-3.142.797 0 1.485.377 1.485 1.02 0 .666-.52 1.35-1.307 1.6-.5.167-.985.266-1.816.266-.02.177-.012.247-.012.343 0 .453.378.84.903.84.706 0 1.37-.66 1.45-.74l.262.714c-.21.223-.446.416-.713.557-.42.223-.904.344-1.432.344-1.145 0-1.92-.73-1.92-1.81h0zm8.392-3.11c.835 0 .96.506.96.9 0 .46-.32.777-.686.777-.277 0-.4-.114-.45-.164-.128-.13-.15-.262-.163-.373-.018-.13-.06-.256-.207-.28-.21-.034-.384.052-.564.215-.243.22-.45.568-.6.902-.104.23-.18.448-.225.604l-.585 2.187h-1.515l1.242-4.686h1.47l-.264.94c.346-.426.99-1.02 1.586-1.02h0zm-9.873.85h-2.1l.203-.77h3.766c-.434 1.457-2.473 2.64-3.035 3.744h2.373l-.248.943h-3.854c0-1.48 2.434-3.19 2.897-3.917h0zm-10.77-2.41l-.817 3.078C6.676 8.2 7.43 7.998 7.8 6.788c.303-1 .185-1.653-1.243-1.653h-.264zm14.6 2.53a2.24 2.24 0 0 0-.778 1.274c.685-.024 1.072-.13 1.427-.413.32-.255.463-.543.463-.785 0-.133-.08-.34-.448-.34-.168 0-.44.1-.664.265h0z" fill="#fefefe" fill-rule="evenodd"/></svg>