<svg xmlns="http://www.w3.org/2000/svg" xmlns:xlink="http://www.w3.org/1999/xlink" viewBox="0 0 485 72" xmlns:v="https://vecta.io/nano"><defs><path id="A" d="M0 0h485v72H0z"/><path id="B" d="M180.9 29.5h2.5v23.2h-2.1l-15-19v19h-2.5V29.5h2.5l14.6 18.6V29.5z"/></defs><clipPath id="C"><use xlink:href="#A"/></clipPath><g clip-path="url(#C)"><path d="M7.3 52V22.4L.9 18.7c-.1.2-.1.4-.1.6v35.8a1.1 1.1 0 0 0 .6 1L28 71.5c.8.5 1.8-.1 1.8-1V36.1a1.1 1.1 0 0 0-.6-1l-13.5-7.8c-.8-.5-1.8.1-1.8 1v4.8a1.1 1.1 0 0 0 .6 1l8.7 5v22L7.3 52z" fill="#f05123"/><path d="M64.9 18.7c-.1-.2-.3-.3-.4-.5L33.5.3c-.4-.2-.8-.2-1.2 0l-31 17.9c-.2.1-.3.3-.4.5l6.4 3.7L32.9 7.6l25.6 14.8V52l-15.9 9.1v-22l8.7-5a1.1 1.1 0 0 0 .6-1v-4.8c0-.9-1-1.5-1.8-1l-13.5 7.8a1.1 1.1 0 0 0-.6 1v34.4c0 .9 1 1.5 1.8 1l26.6-15.4a1.1 1.1 0 0 0 .6-1V19.3a.47.47 0 0 0-.1-.6z" fill="#fcc7ab"/><g fill="#f05123"><path d="M105.8 31.9H91.7v8.3h12.6v2.4H91.7v10.1h-2.6V29.5h16.7v2.4zm15.4 21.2c-7.1 0-11.8-5.5-11.8-12s4.8-12 11.9-12 11.8 5.5 11.8 12c-.1 6.4-4.9 12-11.9 12zm0-21.6c-5.3 0-9.1 4.2-9.1 9.5s3.9 9.6 9.1 9.6 9.1-4.2 9.1-9.5-3.8-9.6-9.1-9.6zm36.4 11.3c0 6.8-3.9 10.3-9.7 10.3-5.7 0-9.6-3.5-9.6-10.1V29.5h2.6v13.3c0 5 2.6 7.8 7.1 7.8 4.3 0 7-2.6 7-7.7V29.4h2.6v13.4z"/><use xlink:href="#B"/><path d="M198.1 52.7H190V29.5h8.1c7.3 0 12.3 5 12.3 11.6s-5 11.6-12.3 11.6zm0-20.8h-5.4v18.4h5.4c5.9 0 9.6-4 9.6-9.1 0-5.3-3.7-9.3-9.6-9.3zm38 20.8h-2.8l-2.7-6.1H218l-2.8 6.1h-2.7l10.6-23.4h2.5l10.5 23.4zm-11.8-20.3L219 44.2h10.6l-5.3-11.8zm22.2 20.3h-2.6V31.9h-7.8v-2.4h18.2v2.4h-7.8v20.8zm15.6-23.2v23.2h-2.6V29.5h2.6zm17.6 23.6c-7.1 0-11.8-5.5-11.8-12s4.8-12 11.9-12 11.8 5.5 11.8 12c0 6.4-4.8 12-11.9 12zm0-21.6c-5.3 0-9.1 4.2-9.1 9.5s3.9 9.6 9.1 9.6c5.3 0 9.1-4.2 9.1-9.5s-3.8-9.6-9.1-9.6zm34.5-2h2.5v23.2h-2.1l-15-19v19h-2.5V29.5h2.5l14.6 18.6V29.5zm19.9 23.6c-7.2 0-12.3-5.3-12.3-11.9v-.1c0-6.6 5.2-12 12.4-12s12.3 5.3 12.3 11.9v.1c0 6.6-5.2 12-12.4 12zm7.1-12c0-4-2.9-7.3-7-7.3s-7 3.3-7 7.2v.1c0 4 2.9 7.3 7 7.3s7-3.3 7-7.3zm26.1 11.6l-11.2-14.8v14.8h-5V29.5h4.7l10.9 14.3V29.5h5v23.2h-4.4zm10 0V29.5h17.5V34h-12.4v4.7h10.9v4.5h-10.9v4.9H395v4.5l-17.7.1zm51.9.4c-6.8 0-11.9-5.3-11.9-11.9v-.1c0-6.6 5-12 12.1-12 4.4 0 7 1.5 9.2 3.6l-3.3 3.8c-1.8-1.6-3.6-2.6-5.9-2.6-3.9 0-6.7 3.3-6.7 7.2v.1c0 4 2.8 7.3 6.7 7.3 2.7 0 4.3-1.1 6.1-2.7l3.3 3.3c-2.5 2.4-5.1 4-9.6 4zm22.7-.4h-9V29.5h9c7.3 0 12.3 5 12.3 11.5v.1c0 6.5-5 11.6-12.3 11.6zm7-11.6c0-4.1-2.8-7-7-7h-4v14h4c4.2 0 7-2.9 7-7zm20 11.6l-3.6-5.5-3.6 5.5h-5.3l6.2-9-6-8.8h5.4l3.3 5.2 3.3-5.2h5.3l-6 8.6 6.3 9.1-5.3.1zm-73.3-10.8c-3.9 0-7-3.1-7-7 0-3.8 3.1-7 7-7s7 3.1 7 7-3.1 7-7 7zm0-13.4a6.38 6.38 0 0 0-6.4 6.4c0 3.5 2.7 6.4 6.3 6.4a6.38 6.38 0 0 0 6.4-6.4c0-3.5-2.7-6.4-6.3-6.4zm1.3 6.9l2.2 2.9h-1.3l-2.1-2.7h-1.8v2.7h-1.1v-7.2h3.2c1.6 0 2.7.8 2.7 2.2.1 1.1-.7 1.8-1.8 2.1zM406 32h-2.1v2.5h2c1 0 1.7-.5 1.7-1.3.1-.7-.6-1.2-1.6-1.2z"/></g></g></svg>