<?xml version="1.0" encoding="UTF-8"?>
<svg width="29px" height="17px" viewBox="0 0 29 17" version="1.1" xmlns="http://www.w3.org/2000/svg" xmlns:xlink="http://www.w3.org/1999/xlink">
    <!-- Generator: Sketch 59.1 (86144) - https://sketch.com -->
    <title>PfizerOncologyLogo</title>
    <desc>Created with Sketch.</desc>
    <g id="Symbols" stroke="none" stroke-width="1" fill="none" fill-rule="evenodd">
        <g id="v1-/-Static" transform="translate(-258.000000, -222.000000)" fill="#FEFEFE">
            <g id="Logos-/-Pfizer-Oncology" transform="translate(214.000000, 222.000000)">
                <g id="Group-24" transform="translate(32.244395, 0.166667)">
                    <path d="M29.9458773,-3.33333333e-05 C28.3205634,0.0003 26.6019536,0.1763 24.857319,0.546633333 C17.7108482,2.06446667 12.4410993,6.3383 12.4394619,10.4013 C12.4394619,10.7121333 12.4699065,11.0209667 12.5325948,11.3279667 C13.0501419,13.8523 15.6396778,15.6444667 19.2368101,16.3728 C19.997254,13.3861333 21.7461442,6.54963333 21.7461442,6.54963333 C22.0890477,5.19796667 22.2803863,4.67546667 22.6198527,4.08713333 C23.0616172,3.32646667 23.7703392,2.6978 24.7636957,2.6068 C25.3036666,2.55696667 26.107976,2.6263 26.5580881,2.94763333 C26.9828302,3.2508 27.03668,3.56913333 27.0229311,3.8588 C26.9936329,4.45696667 26.634689,4.8563 26.0603459,4.8563 C25.4719267,4.8563 25.2886083,4.41713333 25.2858258,4.12663333 C25.2820612,3.73246667 25.5118639,3.67146667 25.5094087,3.3788 C25.5080993,3.22963333 25.3743751,2.99646667 25.0067563,3.0548 C24.5527159,3.1268 24.1742944,3.49396667 23.928124,4.13313333 C23.8710007,4.2823 23.7998011,4.48063333 23.7109244,4.8208 L23.2595029,6.60796667 L26.2376083,6.60796667 C25.8483841,8.0448 25.1889289,10.5954667 25.0047921,11.2943 L23.500763,11.2943 L24.5327473,7.37713333 L23.05818,7.37713333 L20.7028661,16.6043 C21.44105,16.6896333 22.2113146,16.7334667 23.0053123,16.7348 L23.0837137,16.7348 C24.6671262,16.7316333 26.3464536,16.5569667 28.062772,16.1928 C35.2261015,14.6703 40.7061755,10.3564667 40.7114132,6.2813 C40.7114132,5.9803 40.682115,5.68046667 40.6210634,5.38313333 C39.9370567,2.04263333 35.4861845,-3.33333333e-05 29.9468594,-3.33333333e-05 L29.9458773,-3.33333333e-05 Z M16.7217473,4.26996667 L18.4811128,4.26996667 C21.179985,4.26996667 21.3701778,5.67246667 21.1415208,6.67113333 C20.8588504,7.90646667 20.1313056,8.78813333 17.0328975,8.7933 C16.7273123,9.94296667 16.4629737,10.9376333 16.3683684,11.2943 L14.855337,11.2943 C15.132606,10.2511333 16.7217473,4.26996667 16.7217473,4.26996667 L16.7217473,4.26996667 Z M30.2990926,9.63846667 C30.2990926,7.94213333 31.7980477,6.4963 33.4007742,6.4963 C34.1977181,6.4963 34.8856531,6.87346667 34.8856531,7.51563333 C34.8856531,8.18146667 34.3649962,8.86596667 33.5783639,9.12596667 C33.0883146,9.29313333 32.5930276,9.3918 31.7628572,9.3918 C31.7423975,9.56896667 31.7505814,9.63846667 31.7505814,9.73446667 C31.7505814,10.1869667 32.1283482,10.5729667 32.6539155,10.5729667 C33.3598549,10.5729667 34.0247114,9.91396667 34.1032764,9.83446667 L34.3649962,10.5483 C34.1538527,10.7708 33.9191397,10.9639667 33.6518549,11.1054667 C33.2303863,11.3283 32.7478661,11.4491333 32.2195163,11.4491333 C31.0741038,11.4491333 30.2990926,10.7196333 30.2990926,9.63846667 L30.2990926,9.63846667 Z M38.6911464,6.5273 C39.5262271,6.5273 39.6519311,7.03346667 39.6519311,7.42613333 C39.6519311,7.88663333 39.3325971,8.20296667 38.966124,8.20296667 C38.6888549,8.20296667 38.5665881,8.0893 38.517485,8.03913333 C38.3899805,7.90946667 38.3687024,7.77696667 38.3544625,7.66613333 C38.335967,7.5358 38.2940657,7.41013333 38.147411,7.38596667 C37.9362675,7.3518 37.7629334,7.43813333 37.5832159,7.6008 C37.340319,7.82096667 37.1334311,8.1688 36.9820298,8.50313333 C36.8782585,8.73296667 36.8006755,8.95163333 36.7573011,9.10746667 L36.1726464,11.2943 L34.6578146,11.2943 L35.8997966,6.60796667 L37.3696172,6.60796667 L37.1054424,7.54763333 C37.4511285,7.12146667 38.0968347,6.5273 38.6911464,6.5273 L38.6911464,6.5273 Z M28.8183056,7.37713333 L26.717837,7.3768 L26.9212876,6.60796667 L30.6870074,6.60796667 C30.2534267,8.0653 28.214337,9.24846667 27.651615,10.3514667 L30.0242787,10.3514667 L29.7758168,11.2943 L25.9217114,11.2943 C25.9217114,9.8133 28.355263,8.10296667 28.8183056,7.37713333 L28.8183056,7.37713333 Z M18.0488415,4.96846667 C17.8322966,5.78513333 17.5257294,6.93863333 17.2314379,8.04596667 C18.4318459,8.04313333 19.1865612,7.8313 19.5559805,6.62113333 C19.8586195,5.63063333 19.740772,4.96846667 18.3130163,4.96846667 L18.0488415,4.96846667 Z M32.6480231,7.49763333 C32.271893,7.7918 31.9825119,8.25413333 31.869902,8.77146667 C32.5545634,8.74696667 32.9414962,8.6428 33.2966755,8.3588 C33.6161733,8.10396667 33.7598818,7.8163 33.7598818,7.57396667 C33.7598818,7.44096667 33.6793527,7.23263333 33.3117338,7.23263333 C33.1441285,7.23263333 32.8714424,7.32246667 32.6480231,7.49763333 L32.6480231,7.49763333 Z" id="Combined-Shape"></path>
                </g>
            </g>
        </g>
    </g>
</svg>