<?xml version="1.0" encoding="utf-8"?>
<!-- Generator: Adobe Illustrator 23.0.1, SVG Export Plug-In . SVG Version: 6.00 Build 0)  -->
<svg version="1.1" xmlns="http://www.w3.org/2000/svg" xmlns:xlink="http://www.w3.org/1999/xlink" x="0px" y="0px"
	 viewBox="0 0 936 248.79" style="enable-background:new 0 0 936 248.79;" xml:space="preserve">
<style type="text/css">
	.st0{fill:#FFFFFF;}
</style>
<g id="Labels">
</g>
<g id="Layer_1">
	<g>
		<g>
			<g>
				<g>
					<path class="st0" d="M74.84,151.25v-49.41l-10.69-6.17c-0.16,0.29-0.25,0.61-0.25,0.95v59.81c0,0.71,0.37,1.36,0.99,1.71
						l44.41,25.64c1.31,0.76,2.95-0.19,2.95-1.71v-57.47c0-0.71-0.38-1.36-0.98-1.71l-22.53-13c-1.31-0.76-2.95,0.19-2.95,1.7v8.08
						c0,0.71,0.38,1.36,0.98,1.71l14.54,8.39v36.77L74.84,151.25z"/>
					<path class="st0" d="M171.19,95.67L171.19,95.67c-0.18-0.31-0.42-0.58-0.74-0.76l-51.8-29.91c-0.61-0.35-1.36-0.35-1.97,0
						L64.89,94.92c-0.31,0.18-0.56,0.44-0.73,0.74l10.68,6.17v-0.03l42.83-24.73l42.83,24.73v0.04l0,0v49.41l-26.47,15.28v-36.77
						l14.54-8.39c0.61-0.35,0.99-1,0.99-1.71v-8.08c0-1.52-1.64-2.46-2.95-1.71l-22.53,13.01c-0.61,0.35-0.98,1-0.98,1.71v57.47
						c0,1.52,1.64,2.46,2.95,1.71l44.41-25.64c0.61-0.35,0.99-1,0.99-1.71V96.62C171.44,96.29,171.34,95.96,171.19,95.67z"/>
				</g>
			</g>
		</g>
		<g>
			<g>
				<path class="st0" d="M239.37,117.66h-23.48v13.84h20.99v3.99h-20.99v16.89h-4.37v-38.76h27.85V117.66z"/>
				<path class="st0" d="M265.06,153.05c-11.79,0-19.71-9.25-19.71-19.99c0-10.74,8.03-20.1,19.82-20.1
					c11.79,0,19.71,9.25,19.71,19.99C284.89,143.69,276.86,153.05,265.06,153.05z M265.06,117c-8.86,0-15.17,7.09-15.17,15.95
					c0,8.86,6.42,16.06,15.28,16.06s15.17-7.09,15.17-15.95C280.35,124.2,273.92,117,265.06,117z"/>
				<path class="st0" d="M325.87,135.83c0,11.3-6.48,17.17-16.17,17.17c-9.58,0-16.11-5.87-16.11-16.83v-22.54h4.37v22.26
					c0,8.36,4.43,13.07,11.85,13.07c7.14,0,11.68-4.32,11.68-12.79v-22.54h4.37V135.83z"/>
				<path class="st0" d="M364.79,113.62h4.26v38.76h-3.49l-25.03-31.79v31.79h-4.26v-38.76h4.1l24.42,31.06V113.62z"/>
				<path class="st0" d="M393.53,152.38h-13.46v-38.76h13.46c12.18,0,20.6,8.36,20.6,19.33S405.72,152.38,393.53,152.38z
					 M393.53,117.66h-9.08v30.68h9.08c9.8,0,16.06-6.65,16.06-15.28C409.59,124.42,403.34,117.66,393.53,117.66z"/>
				<path class="st0" d="M457,152.38h-4.71l-4.54-10.24h-21.1l-4.6,10.24h-4.49l17.66-39.04h4.1L457,152.38z M437.23,118.44
					l-8.86,19.77h17.66L437.23,118.44z"/>
				<path class="st0" d="M474.38,152.38h-4.43v-34.72h-13.01v-4.04h30.46v4.04h-13.01V152.38z"/>
				<path class="st0" d="M500.41,113.62v38.76h-4.37v-38.76H500.41z"/>
				<path class="st0" d="M529.81,153.05c-11.79,0-19.71-9.25-19.71-19.99c0-10.74,8.03-20.1,19.82-20.1
					c11.79,0,19.71,9.25,19.71,19.99C549.64,143.69,541.61,153.05,529.81,153.05z M529.81,117c-8.86,0-15.17,7.09-15.17,15.95
					c0,8.86,6.42,16.06,15.28,16.06s15.17-7.09,15.17-15.95C545.1,124.2,538.67,117,529.81,117z"/>
				<path class="st0" d="M587.46,113.62h4.26v38.76h-3.49L563.2,120.6v31.79h-4.26v-38.76h4.1l24.42,31.06V113.62z"/>
				<path class="st0" d="M620.74,153.05c-11.96,0-20.54-8.92-20.54-19.93V133c0-11.02,8.69-20.05,20.65-20.05
					s20.54,8.92,20.54,19.93V133C641.39,144.02,632.7,153.05,620.74,153.05z M632.48,133c0-6.64-4.87-12.18-11.74-12.18
					c-6.87,0-11.63,5.43-11.63,12.07V133c0,6.64,4.87,12.18,11.74,12.18s11.63-5.43,11.63-12.07V133z"/>
				<path class="st0" d="M676.22,152.38l-18.77-24.64v24.64h-8.42v-38.76h7.86l18.16,23.87v-23.87h8.42v38.76H676.22z"/>
				<path class="st0" d="M692.84,152.38v-38.76h29.24v7.59h-20.77v7.86h18.27v7.59h-18.27v8.14h21.04v7.59H692.84z"/>
				<path class="st0" d="M779.51,153.05c-11.41,0-19.88-8.8-19.88-19.93V133c0-11.02,8.31-20.05,20.21-20.05
					c7.31,0,11.68,2.44,15.28,5.98l-5.43,6.26c-2.99-2.71-6.04-4.38-9.91-4.38c-6.53,0-11.24,5.43-11.24,12.07V133
					c0,6.64,4.6,12.18,11.24,12.18c4.43,0,7.14-1.77,10.19-4.54l5.43,5.48C791.42,150.39,786.99,153.05,779.51,153.05z"/>
				<path class="st0" d="M817.39,152.38h-15.12v-38.76h15.12c12.18,0,20.6,8.36,20.6,19.27V133
					C837.99,143.91,829.57,152.38,817.39,152.38z M829.07,133c0-6.87-4.71-11.68-11.68-11.68h-6.59v23.37h6.59
					c6.98,0,11.68-4.71,11.68-11.57V133z"/>
				<path class="st0" d="M862.46,152.38l-5.98-9.25l-5.98,9.25h-8.8l10.41-15.06l-10.02-14.62h9.03l5.54,8.64l5.59-8.64h8.8
					l-10.02,14.45l10.46,15.23H862.46z"/>
			</g>
		</g>
	</g>
	<g>
		<g>
			<path class="st0" d="M740.03,134.3c-6.55,0-11.66-5.26-11.66-11.66c0-6.39,5.17-11.72,11.72-11.72c6.55,0,11.66,5.26,11.66,11.66
				S746.59,134.3,740.03,134.3z M740.1,111.92c-6.07,0-10.65,4.84-10.65,10.72c0,5.88,4.55,10.66,10.59,10.66
				c6.07,0,10.66-4.84,10.66-10.72S746.13,111.92,740.1,111.92z M742.26,123.45l3.71,4.81h-2.2l-3.45-4.52h-3.07v4.52h-1.78v-11.98
				h5.36c2.65,0,4.52,1.39,4.52,3.62C745.36,121.87,744.07,123.03,742.26,123.45z M740.77,117.9h-3.52v4.26h3.42
				c1.68,0,2.84-0.77,2.84-2.16C743.52,118.67,742.49,117.9,740.77,117.9z"/>
		</g>
	</g>
</g>
</svg>
