<svg xmlns="http://www.w3.org/2000/svg" xmlns:xlink="http://www.w3.org/1999/xlink" viewBox="0 0 195 85.8"><path d="M139.7 18.9c1.4 0 2.3 1.1 2.3 2.4s-1 2.4-2.3 2.4c-1.4 0-2.3-1.1-2.3-2.4s.9-2.4 2.3-2.4zm0 4.4c1.1 0 1.9-.9 1.9-2s-.8-2-1.9-2-1.9.9-1.9 2 .8 2 1.9 2zm0-1.7h-.5v1h-.5v-2.8h.9c.7 0 1 .2 1 .8 0 .4-.1.7-.4.8l.5 1.1h-.5l-.5-.9zm-.5-.4h.5c.3 0 .4-.1.4-.4s-.2-.4-.5-.4h-.4v.8zM23 42.2c.3.4.2.9-.5.9h-3.6c-.6 0-1-.4-1.3-.9l-4.3-7.4-3.9 7.4c-.3.5-.6.9-1.3.9H4.8c-.6 0-.6-.6-.4-1l6.5-11.5-6.2-10.8c-.3-.5-.3-1 .4-1h3.6c.6 0 1 .4 1.3.9l4 6.9 3.7-6.9c.3-.5.7-.9 1.3-.9h3.3c.6 0 .7.4.4.9l-6.4 10.9L23 42.2zm4.2.9c-.6 0-.9-.3-.9-.9V19.7c0-.6.2-.9.9-.9h12.2c.6 0 .9.2.9.9V22c0 .6-.3.9-.9.9h-8.3v5.8h7.7c.6 0 .9.2.9.9v2.1c0 .6-.3.9-.9.9h-7.7v6.7h8.6c.6 0 .9.2.9.9v2.3c0 .6-.3.9-.9.9H27.2zm21.9-4h7.6c.6 0 .9.2.9.9v2.3c0 .6-.3.9-.9.9H45c-.5 0-.8-.3-.8-.9V19.7c0-.6.2-.9.9-.9h3.1c.6 0 .9.3.9.9v19.4zm15.2-2.4c0 1.8 1 2.7 3.1 2.7s2.9-.9 2.9-2.7v-17c0-.6.2-.9.9-.9h3.1c.6 0 .9.3.9.9v17.8c0 3-1.6 5.8-7.7 5.8-6 0-7.5-2.8-7.5-5.8v-2.1c0-.6.3-.9.9-.9h2.6c.6 0 .9.3.9.9v1.3zm25-17.1c-.2-.6-.5-.9-1.2-.9H85c-.6 0-.9.3-1.1.9l-6.7 22.7c-.2.6 0 .9.7.9h2.9c.6 0 .9-.3 1.1-.9l1.3-4.4h6.7l1.3 4.4c.2.6.4.9 1 .9h3.2c.6 0 .8-.3.6-.9l-6.7-22.7zM84.2 34l2.3-9.4 2.2 9.4h-4.5zm32.3 8.2c0 .6-.2.9-.9.9h-2.8c-.5 0-.6-.1-.8-.4l-6.9-11.8c-1-1.6-1.4-2.8-1.4-2.9v14.3c0 .6-.2.9-.9.9H100c-.6 0-.9-.3-.9-.9V19.7c0-.6.2-.9.9-.9h2.8c.4 0 .6.1.8.4l7.2 12.3c.6 1 1.2 2.5 1.2 2.5V19.7c0-.6.2-.9.9-.9h2.8c.6 0 .9.3.9.9v22.5zm17.6-23.4c.6 0 .9.2.9.9v2.2c0 .3-.1.5-.2.7l-9.2 16.5h9.1c.6 0 .9.2.9.9v2.3c0 .6-.3.9-.9.9h-14c-.6 0-.9-.3-.9-.9V40c0-.3.1-.5.1-.6l9.2-16.6h-7.8c-.6 0-.9-.2-.9-.9v-2.3c0-.6.3-.9.9-.9h12.8z" fill="#364544"/><linearGradient id="A" gradientUnits="userSpaceOnUse" x1="150.736" y1="40.264" x2="161.66" y2="29.34"><stop offset="0" stop-color="#fbc5d1"/><stop offset=".999" stop-color="#ed1849"/></linearGradient><path d="M150.7 38.1c-.5.6-.5 1.6 0 2.1.6.6 1.5.6 2.1 0l9-7.9.1-.1c.8-.8.6-2.1-.2-3-.9-.9-2.2-1-3-.2l-.1.1-7.9 9z" fill="url(#A)"/><linearGradient id="B" gradientUnits="userSpaceOnUse" x1="172.922" y1="27.069" x2="187.098" y2="16.192"><stop offset="0" stop-color="#fbc5d1"/><stop offset=".999" stop-color="#ed1849"/></linearGradient><path d="M172.9 27.1c.4.5 1 .7 1.4.4l13-9.5c.4-.3.3-1.1-.2-1.8s-1.3-1-1.7-.7l-12.6 10.1c-.3.3-.2 1 .1 1.5z" fill="url(#B)"/><linearGradient id="C" gradientUnits="userSpaceOnUse" x1="173.914" y1="33.461" x2="189.64" y2="24.198"><stop offset="0" stop-color="#fbc5d1"/><stop offset=".999" stop-color="#ed1849"/></linearGradient><path d="M173.9 33.5c.3.6.9.9 1.4.6l14.4-8c.4-.2.4-1.1 0-1.9-.5-.8-1.2-1.2-1.6-.9L174 32c-.4.2-.4.9-.1 1.5z" fill="url(#C)"/><linearGradient id="D" gradientUnits="userSpaceOnUse" x1="169.35" y1="21.651" x2="181.882" y2="9.119"><stop offset="0" stop-color="#fbc5d1"/><stop offset=".999" stop-color="#ed1849"/></linearGradient><path d="M169.3 21.6c.4.4 1 .5 1.4.2l11.6-11.1c.4-.3.2-1.1-.4-1.7s-1.3-.8-1.7-.4l-11.1 11.6c-.3.4-.2 1 .2 1.4z" fill="url(#D)"/><linearGradient id="E" gradientUnits="userSpaceOnUse" x1="171.614" y1="39.495" x2="188.416" y2="31.838"><stop offset="0" stop-color="#fbc5d1"/><stop offset=".999" stop-color="#ed1849"/></linearGradient><path d="M172 37.8c-.5.3-.6 1-.3 1.6s.9 1 1.5.8l14.9-6.2c.7-.3.9-1.3.4-2.2-.4-.9-1.3-1.4-2-1.1L172 37.8z" fill="url(#E)"/><linearGradient id="F" gradientUnits="userSpaceOnUse" x1="165.943" y1="43.647" x2="182.56" y2="36.934"><stop offset="0" stop-color="#fbc5d1"/><stop offset=".999" stop-color="#ed1849"/></linearGradient><path d="M181.8 39.5c.9-.3 1.2-1.5.7-2.6-.4-1.1-1.4-1.7-2.2-1.4h-.1l-13.6 6.2c-.7.3-1 1.1-.7 1.9.3.7 1.1 1.1 1.8.9l14.1-5z" fill="url(#F)"/><linearGradient id="G" gradientUnits="userSpaceOnUse" x1="158.061" y1="44.177" x2="172.642" y2="36.587"><stop offset="0" stop-color="#fbc5d1"/><stop offset=".999" stop-color="#ed1849"/></linearGradient><path d="M158.7 42.1c-.7.4-1 1.3-.6 2.1.4.7 1.3 1 2 .7l11.8-5.3h.1c.9-.5 1.2-1.8.7-2.9-.6-1.1-1.8-1.6-2.8-1.1h-.1l-11.1 6.5z" fill="url(#G)"/><linearGradient id="H" gradientUnits="userSpaceOnUse" x1="163.93" y1="18.075" x2="174.806" y2="3.901"><stop offset="0" stop-color="#fbc5d1"/><stop offset=".999" stop-color="#ed1849"/></linearGradient><path d="M163.9 18.1c-.5-.4-.7-1-.4-1.4l9.5-13c.3-.4 1.1-.3 1.8.2s1 1.3.7 1.7l-10.1 12.6c-.3.3-1 .2-1.5-.1z" fill="url(#H)"/><linearGradient id="I" gradientUnits="userSpaceOnUse" x1="157.539" y1="17.086" x2="166.802" y2="1.36"><stop offset="0" stop-color="#fbc5d1"/><stop offset=".999" stop-color="#ed1849"/></linearGradient><path d="M157.5 17.1c-.6-.3-.9-.9-.6-1.4l8-14.4c.2-.4 1.1-.4 1.9 0 .8.5 1.2 1.2.9 1.6L159 17c-.2.4-.9.4-1.5.1z" fill="url(#I)"/><linearGradient id="J" gradientUnits="userSpaceOnUse" x1="151.504" y1="19.387" x2="159.162" y2="2.583"><stop offset="0" stop-color="#fbc5d1"/><stop offset=".999" stop-color="#ed1849"/></linearGradient><path d="M153.2 19c-.3.5-1 .6-1.6.3-.7-.3-1-.9-.8-1.5L157 2.9c.3-.7 1.3-.9 2.2-.4.9.4 1.4 1.3 1.1 2L153.2 19z" fill="url(#J)"/><linearGradient id="K" gradientUnits="userSpaceOnUse" x1="147.352" y1="25.058" x2="154.066" y2="8.438"><stop offset="0" stop-color="#fbc5d1"/><stop offset=".999" stop-color="#ed1849"/></linearGradient><path d="M151.5 9.2c0-.1 0-.1 0 0 .3-.9 1.5-1.2 2.6-.7 1.1.4 1.7 1.4 1.4 2.2v.1l-6.2 13.6c-.3.7-1.1 1-1.9.7-.7-.3-1.1-1.1-.9-1.8l5-14.1z" fill="url(#K)"/><linearGradient id="L" gradientUnits="userSpaceOnUse" x1="146.823" y1="32.938" x2="154.414" y2="18.358"><stop offset="0" stop-color="#fbc5d1"/><stop offset=".999" stop-color="#ed1849"/></linearGradient><path d="M148.9 32.3c-.4.7-1.3 1-2 .6s-1-1.3-.7-2l5.3-11.8V19c.5-.9 1.8-1.2 2.9-.7 1.1.6 1.6 1.8 1.1 2.8v.1l-6.6 11.1z" fill="url(#L)"/><g fill="#231f20"><path d="M66.9 73.1c.1 0 .1 0 .1.1v.3c0 .1 0 .1-.1.1h-2.8v2h1.1c1.4 0 2 .5 2 1.3v1.4c0 .8-.4 1.4-2 1.4s-2-.6-2-1.4v-.2c0-.1 0-.1.1-.1h.4c.1 0 .1 0 .1.1v.1c0 .6.2.9 1.3.9 1 0 1.3-.4 1.3-.9v-1.3c0-.4-.3-.8-1.3-.8h-1.6c-.1 0-.1 0-.1-.1v-2.9c0-.1 0-.1.1-.1h3.4z"/><use xlink:href="#N"/><path d="M79.1 78.7v-2.5c0-.8.4-1.3 1.4-1.3.8 0 1.4.4 1.7.6v-.4c0-.1 0-.1.1-.1h.4c.1 0 .1 0 .1.1v5.5c0 .8-.5 1.3-1.9 1.3h-1.4c-.1 0-.1 0-.1-.1v-.3c0-.1 0-.1.1-.1H81c.9 0 1.2-.3 1.2-.8v-1.2c-.3.2-.9.6-1.7.6-1 0-1.4-.5-1.4-1.3zm.7-.1c0 .4.2.7.9.7s1.3-.4 1.5-.6V76c-.2-.2-.8-.6-1.5-.6-.6 0-.9.3-.9.7v2.5zm6.8-2.4c0-.7.4-1.3 1.8-1.3s1.8.5 1.8 1.3v3.6c0 .1 0 .1-.1.1h-.4c-.1 0-.1 0-.1-.1v-.4c-.3.2-.8.6-1.6.6-.9 0-1.4-.5-1.4-1.2v-.5c0-.6.4-1.2 1.3-1.2h1.7v-.9c0-.4-.2-.8-1.1-.8s-1.1.3-1.1.7v.1c0 .1 0 .2-.1.2h-.4c-.1 0-.1 0-.1-.2zm2.9 2.6v-1.2H88c-.5 0-.8.3-.8.7v.3c0 .4.3.7.9.7.7.1 1.2-.3 1.4-.5zm2.8-3.7v.4c.3-.2.9-.6 1.7-.6.9 0 1.4.5 1.4 1.2v3.6c0 .1 0 .1-.1.1h-.4c-.1 0-.1 0-.1-.1v-3.5c0-.4-.2-.8-.9-.8s-1.3.4-1.5.6v3.7c0 .1 0 .1-.1.1h-.4c-.1 0-.1 0-.1-.1v-4.6c0-.1 0-.1.1-.1h.4v.1zm7.5 4.3c-.3.2-.8.6-1.7.6-1 0-1.4-.5-1.4-1.3v-2.5c0-.8.4-1.3 1.4-1.3.8 0 1.4.4 1.7.6v-2.4c0-.1 0-.1.1-.1h.4c.1 0 .1 0 .1.1v6.6c0 .1 0 .1-.1.1h-.3c-.1 0-.1 0-.1-.1l-.1-.3zm-2.4-.8c0 .4.2.7.9.7s1.3-.4 1.5-.6V76c-.2-.2-.8-.6-1.5-.6-.6 0-.9.3-.9.7v2.5zm9.2-5.5c.1 0 .1 0 .1.1v6h1.6c.1 0 .1 0 .1.1v.3c0 .1 0 .1-.1.1h-3.9c-.1 0-.1 0-.1-.1v-.3c0-.1 0-.1.1-.1h1.6v-5.4l-1.6.4c-.1 0-.1 0-.1-.1v-.3c0-.1.1-.1.1-.2l2.2-.5zm3.1 1.4c0-.8.4-1.4 2-1.4s2.1.7 2.1 1.4v4c0 .8-.4 1.4-2.1 1.4-1.6 0-2-.7-2-1.4v-4zm3.4.1c0-.6-.3-1-1.3-1-1.1 0-1.3.4-1.3 1v3.8c0 .6.3 1 1.3 1s1.3-.4 1.3-1v-3.8z"/><use xlink:href="#N" x="46.6"/><path d="M125.6 78.7v-2.5c0-.8.4-1.3 1.4-1.3.8 0 1.4.4 1.7.6v-.4c0-.1 0-.1.1-.1h.4c.1 0 .1 0 .1.1v5.5c0 .8-.5 1.3-1.9 1.3H126c-.1 0-.1 0-.1-.1v-.3c0-.1 0-.1.1-.1h1.4c.9 0 1.2-.3 1.2-.8v-1.2c-.3.2-.9.6-1.7.6s-1.3-.5-1.3-1.3zm.7-.1c0 .4.2.7.9.7s1.3-.4 1.5-.6V76c-.2-.2-.8-.6-1.5-.6-.6 0-.9.3-.9.7v2.5z"/><use xlink:href="#O"/><path d="M136.8 76.2c0-.7.4-1.3 1.8-1.3s1.8.5 1.8 1.3v3.6c0 .1 0 .1-.1.1h-.4c-.1 0-.1 0-.1-.1v-.4c-.3.2-.8.6-1.6.6-.9 0-1.4-.5-1.4-1.2v-.5c0-.6.4-1.2 1.3-1.2h1.7v-.9c0-.4-.2-.8-1.1-.8s-1.1.3-1.1.7v.1c0 .1 0 .2-.1.2h-.5c-.1 0-.1 0-.1-.2zm2.9 2.6v-1.2h-1.6c-.5 0-.8.3-.8.7v.3c0 .4.3.7.9.7.8.1 1.3-.3 1.5-.5zm2.3 1.1c-.1 0-.1 0-.1-.1v-6.6c0-.1 0-.1.1-.1h.4c.1 0 .1 0 .1.1v2.4c.3-.2.8-.6 1.7-.6s1.4.5 1.4 1.3v2.5c0 .8-.4 1.3-1.4 1.3-.9 0-1.4-.4-1.7-.6v.4c0 .1 0 .1-.1.1h-.4zm2.9-3.6c0-.4-.2-.7-.9-.7s-1.3.4-1.5.6v2.7c.2.2.8.6 1.5.6.6 0 .9-.3.9-.7v-2.5zm2.8 3.4c0 .1 0 .1-.1.1h-.4c-.1 0-.1 0-.1-.1v-6.6c0-.1 0-.1.1-.1h.4c.1 0 .1 0 .1.1v6.6zm5-2.3c0 .1 0 .1-.1.1h-2.8v1.1c0 .5.2.8 1.2.8.9 0 1.2-.3 1.2-.8v-.2c0-.1 0-.1.1-.1h.4c.1 0 .1 0 .1.1v.2c0 .8-.4 1.3-1.8 1.3s-1.8-.5-1.8-1.3v-2.5c0-.8.5-1.3 1.8-1.3 1.4 0 1.8.5 1.8 1.3v1.3zm-3-.4h2.3v-.8c0-.4-.3-.8-1.2-.8s-1.2.3-1.2.8v.8z"/><use xlink:href="#O" x="20.9"/><path d="M160.5 76c0-.4-.4-.6-1.1-.6s-1.1.2-1.1.6v.3c0 .3.3.5.5.5l1.5.5c.5.2.9.5.9.9v.6c0 .6-.5 1.1-1.8 1.1s-1.8-.5-1.8-1.1v-.3c0-.1 0-.1.1-.1h.4c.1 0 .1 0 .1.1v.2c0 .4.4.6 1.2.6s1.2-.2 1.2-.6v-.4c0-.3-.2-.4-.6-.6l-1.5-.5c-.3-.1-.8-.5-.8-1V76c0-.6.4-1.1 1.7-1.1s1.7.5 1.7 1.1v.3c0 .1 0 .1-.1.1h-.4c-.1 0-.1 0-.1-.1V76zM60.4 52.4c0-1.7 1.1-2.9 4.2-2.9h.1c.2 0 .3.1.3.3v.6c0 .2-.1.3-.3.3h-.1c-2 0-2.6.7-2.6 1.7v14.5c0 1 .6 1.7 2.6 1.7h.1c.2 0 .3.1.3.3v.6c0 .2-.1.3-.3.3h-.1c-3 0-4.2-1.2-4.2-2.9V52.4z"/><use xlink:href="#P"/><path d="M74.8 57.9c0-1.7 1.1-2.9 4.2-2.9 3 0 4.2 1.2 4.2 2.9v5.6c0 1.7-1.2 2.9-4.2 2.9s-4.2-1.2-4.2-2.9v-5.6zm6.8.1c0-1-.7-1.7-2.7-1.7s-2.6.7-2.6 1.7v5.4c0 1 .7 1.7 2.6 1.7 2 0 2.7-.7 2.7-1.7V58zm5.6-2.7v-1.9c0-1.7 1.1-2.8 4.2-2.8h.1c.2 0 .3.1.3.3v.7c0 .2-.1.3-.3.3h-.1c-2 0-2.6.7-2.6 1.7v1.8h2.4c.2 0 .3.1.3.3v.6c0 .2-.1.3-.3.3h-2.4v9.3c0 .2-.1.3-.3.3h-.9c-.2 0-.3-.1-.3-.3v-9.3h-1.4c-.2 0-.3-.1-.3-.3v-.5c0-.2.1-.3.3-.3l1.2-.1h.1zm6.7 2.6c0-1.7 1-2.8 4-2.8s4 1.2 4 2.8v8c0 .2-.1.3-.3.3h-.8c-.2 0-.3-.1-.3-.3v-.8a5.87 5.87 0 0 1-3.7 1.3c-2.1 0-3.1-1.2-3.1-2.6v-1.1c0-1.4 1-2.6 2.9-2.6h3.8v-2c0-1-.5-1.7-2.5-1.7s-2.5.7-2.5 1.7v.3c0 .2-.1.4-.3.4h-.8c-.2 0-.3-.1-.3-.4v-.5zm6.5 6v-2.6h-3.5c-1.2 0-1.7.6-1.7 1.6v.7c0 1 .6 1.5 1.9 1.5 1.6 0 2.8-.8 3.3-1.2zm12.6-6v.4c0 .2-.1.3-.3.3h-.8c-.2 0-.3-.1-.3-.3V58c0-1-.6-1.7-2.5-1.7-2 0-2.5.7-2.5 1.7v5.4c0 1 .6 1.7 2.5 1.7 2 0 2.5-.7 2.5-1.7v-.5c0-.2.1-.3.3-.3h.8c.2 0 .3.1.3.3v.6c0 1.7-1 2.9-4.1 2.9-3 0-4-1.2-4-2.9v-5.6c0-1.7 1-2.9 4-2.9 3.1 0 4.1 1.2 4.1 2.9z"/><use xlink:href="#Q"/><use xlink:href="#P" x="54"/><use xlink:href="#Q" x="13.2"/><path d="M135.3 55.6v.8c.6-.5 1.9-1.4 3.8-1.4 2.1 0 3.1 1.2 3.1 2.7v8.1c0 .2-.1.3-.3.3h-.9c-.2 0-.3-.1-.3-.3V58c0-1-.5-1.7-2-1.7-1.6 0-2.8.8-3.4 1.2v8.2c0 .2-.1.3-.3.3h-.9c-.2 0-.3-.1-.3-.3V55.6c0-.2.1-.3.3-.3h.8c.3-.1.3 0 .4.3z"/><use xlink:href="#Q" x="29.5"/><path d="M150.4 66.2c-.2 0-.3-.1-.3-.3V51c0-.2.1-.3.3-.3h.9c.2 0 .3.1.3.3v5.4c.6-.5 1.9-1.3 3.8-1.3 2.1 0 3.1 1.2 3.1 2.8v5.6c0 1.7-1 2.8-3.1 2.8-1.9 0-3.2-.8-3.8-1.3v.8c0 .2-.1.3-.3.3h-.9zm6.5-8.1c0-.9-.5-1.7-2-1.7-1.7 0-2.8.9-3.4 1.3v6c.5.4 1.7 1.2 3.4 1.2 1.4 0 2-.8 2-1.7v-5.1zm7.2 9.2c0 1.7-1.1 2.9-4.2 2.9h-.1c-.2 0-.3-.1-.3-.3v-.6c0-.2.1-.3.3-.3h.1c2 0 2.6-.7 2.6-1.7V52.6c0-1-.6-1.7-2.6-1.7h-.1c-.2 0-.3-.1-.3-.3V50c0-.2.1-.3.3-.3h.1c3 0 4.2 1.2 4.2 2.9v14.7z"/></g><defs ><path id="N" d="M71.5 75c.1 0 .1 0 .1.1v.4c.3-.2.8-.6 1.6-.6.7 0 1.1.3 1.3.7.2-.2.8-.7 1.7-.7s1.4.5 1.4 1.2v3.6c0 .1 0 .1-.1.1h-.4c-.1 0-.1 0-.1-.1v-3.5c0-.4-.2-.8-.9-.8-.8 0-1.3.4-1.4.6v3.7c0 .1 0 .1-.1.1h-.4c-.1 0-.1 0-.1-.1v-3.5c0-.4-.2-.8-.9-.8s-1.2.4-1.4.6v3.7c0 .1 0 .1-.1.1h-.4c-.1 0-.1 0-.1-.1v-4.6c0-.1 0-.1.1-.1h.2z"/><path id="O" d="M135.3 75c.1 0 .1 0 .1.1v.3c0 .1 0 .1-.1.1h-1.1v3c0 .5.3.8 1.2.8h.2c.1 0 .1 0 .1.1v.3c0 .1 0 .1-.1.1h-.3c-1.4 0-1.8-.5-1.8-1.3v-3h-.6c-.1 0-.1 0-.1-.1v-.2c0-.1 0-.1.1-.1h.6V74c0-.1 0-.1.1-.1h.4c.1 0 .1 0 .1.1v1h1.2z"/><path id="P" d="M71.6 55.3c.2 0 .3.1.3.3v.6c0 .2-.1.3-.3.3h-2.5v6.6c0 1 .6 1.7 2.6 1.7h.4c.2 0 .3.1.3.3v.6c0 .2-.1.3-.3.3h-.6c-3 0-3.9-1.1-3.9-2.9v-6.8h-1.3c-.2 0-.3-.1-.3-.3v-.5c0-.2.1-.3.3-.3l1.2-.1h.2v-2.4c0-.2.1-.3.3-.3h.9c.2 0 .3.1.3.3v2.4h2.4z"/><path id="Q" d="M117.4 53.1c0 .2-.1.3-.3.3h-.9c-.2 0-.3-.1-.3-.3V51c0-.2.1-.3.3-.3h.9c.2 0 .3.1.3.3v2.1zm0 12.8c0 .2-.1.3-.3.3h-.9c-.2 0-.3-.1-.3-.3V55.6c0-.2.1-.3.3-.3h.9c.2 0 .3.1.3.3v10.3z"/></defs></svg>